<svg width="181" height="107" viewBox="0 0 181 107" fill="none" xmlns="http://www.w3.org/2000/svg">
<path d="M70.5 105.5C70.3333 105.5 67.9 106.5 63.5 106.5C67.5 101 69 100.5 74 93.4999C78.7309 86.8766 77 84.9999 78.5 85.4999C80 85.9999 79.5 75.9999 82.5 76.9999C85.5 77.9999 82 71.4999 85 70.9999C88 70.4999 84 67.4999 86 65.9999C87.6 64.7999 96 52.1666 100 45.9999L101.5 42.4999H99L97.5 41.4999H84L79.5 39.4999H72L64.5 41.4999L58 42.4999L53.5 44.9999L47.5 45.9999L36.5 48.4999L19.5 51.4999L7 53.4999H3L8.5 51.9999C15.8333 50.3333 31.3 46.7999 34.5 45.9999C38.5 44.9999 41 44.9999 45.5 42.4999C50 39.9999 49 39.4999 50.5 38.4999C52 37.4999 48 37.9999 43.5 38.4999C39 38.9999 36 41.4999 32.5 41.4999C29.7 41.4999 11.6667 45.1666 3 46.9999L1.5 44.9999C12 42.4999 28.5 39.9999 41 36.9999C51.9185 34.3795 55.8333 33.1666 56.5 32.4999L69.5 27.4999C75.8333 24.4999 89.8 17.7999 95 14.9999C100.2 12.1999 99.8333 10.4999 99 9.99994C99 7.49994 98 6.49994 95 7.49994C91.9627 8.51236 86.5 7.49994 83 7.49994C80.2 7.49994 76.5 6.83327 75 6.49994L67.5 5.49994L63.5 4.49994L59 3.49991H55L52 2.49994L50.5 0.999913C59.5 0.833247 77.9 0.599913 79.5 0.999913C81.5 1.49991 135.5 2.49991 142 3.49991C148.5 4.49991 146.5 7.49991 150 7.49991C153.5 7.49991 155.5 6.99991 159 7.49991C162.5 7.99991 168 9.49991 171 12.9999C174 16.4999 173 19.9999 174 19.9999H177.5C178.3 19.9999 179.167 21.9999 179.5 22.9999C177.167 22.6666 172.2 22.3999 171 23.9999C169.8 25.5999 157.833 29.9999 152 31.9999C153 33.6666 153.3 38.9999 146.5 46.9999C138 56.9999 118.5 71.4999 109.5 80.9999C102.3 88.5999 80.5 100.5 70.5 105.5Z" fill="#DF0000" fill-opacity="0.75" stroke="black"/>
</svg>
